<?xml version="1.0" encoding="UTF-8"?>
<svg xmlns="http://www.w3.org/2000/svg" xmlns:xlink="http://www.w3.org/1999/xlink" width="255px" height="242px" viewBox="0 0 765 728" version="1.1">
<g id="surface1">
<path style=" stroke:none;fill-rule:nonzero;fill:rgb(0%,0%,0%);fill-opacity:1;" d="M 2.925781 674.1875 C 0 664.65625 0 655.5 0 645.820312 L 0 573.542969 C 0 549.078125 0.449219 521.234375 6.148438 497.589844 C 27.148438 492.414062 51 492.113281 76.050781 492.113281 L 130.726562 492.113281 C 131.527344 495.863281 131.953125 499.683594 132 503.519531 C 131.910156 507.355469 131.484375 511.171875 130.726562 514.929688 C 123.074219 517.40625 115.425781 517.40625 107.550781 517.40625 L 77.25 517.40625 C 60.898438 517.40625 46.726562 517.40625 32.625 520.332031 C 30.601562 535.417969 30.148438 553.355469 30.148438 573.617188 L 112.050781 573.617188 C 112.894531 577.285156 113.300781 581.039062 113.25 584.800781 C 113.273438 588.761719 112.871094 592.710938 112.050781 596.585938 C 104.175781 599.0625 96.75 599.0625 88.351562 599.0625 L 30.148438 599.0625 L 30.148438 674.113281 C 25.785156 675.019531 21.332031 675.449219 16.875 675.390625 C 12.203125 675.277344 7.546875 674.875 2.925781 674.1875 Z M 2.925781 674.1875 "/>
<path style=" stroke:none;fill-rule:nonzero;fill:rgb(0%,0%,0%);fill-opacity:1;" d="M 149.925781 673.960938 C 148.851562 665.628906 148.375 657.226562 148.5 648.820312 L 148.5 517.554688 C 148.5 508.847656 148.5 500.292969 151.199219 491.8125 C 158.765625 490.210938 166.582031 490.210938 174.148438 491.8125 C 176.625 500.21875 176.625 509.074219 176.625 517.78125 L 176.625 648.519531 C 176.625 656.625 176.851562 664.355469 175.125 673.960938 C 171.1875 675.011719 167.125 675.515625 163.050781 675.464844 C 158.628906 675.496094 154.222656 674.992188 149.925781 673.960938 Z M 149.925781 673.960938 "/>
<path style=" stroke:none;fill-rule:nonzero;fill:rgb(0%,0%,0%);fill-opacity:1;" d="M 204.898438 726.273438 L 229.800781 669.308594 L 194.851562 584.425781 C 190.949219 574.59375 184.949219 561.011719 184.726562 550.203125 C 189.324219 548.984375 194.066406 548.402344 198.824219 548.476562 C 203.296875 548.410156 207.757812 548.914062 212.101562 549.976562 L 245.101562 636.0625 L 262.949219 597.109375 C 268.574219 584.425781 276.226562 563.488281 279.898438 549.976562 C 284.449219 548.917969 289.105469 548.414062 293.773438 548.476562 C 298.320312 548.421875 302.851562 548.925781 307.273438 549.976562 C 305.625 565.738281 296.699219 584.203125 287.550781 604.992188 L 234.75 726.273438 C 229.96875 727.304688 225.089844 727.808594 220.199219 727.773438 C 215.0625 727.832031 209.929688 727.332031 204.898438 726.273438 Z M 204.898438 726.273438 "/>
<path style=" stroke:none;fill-rule:nonzero;fill:rgb(0%,0%,0%);fill-opacity:1;" d="M 343.351562 673.960938 L 317.925781 578.722656 C 314.925781 567.914062 312.226562 558.007812 311.699219 550.128906 C 316.714844 548.949219 321.851562 548.371094 327 548.402344 C 331.742188 548.378906 336.46875 548.882812 341.101562 549.902344 L 363.300781 645.144531 L 398.101562 550.878906 C 401.8125 550.023438 405.613281 549.597656 409.425781 549.601562 C 413.484375 549.589844 417.53125 550.015625 421.5 550.878906 L 456.300781 645.144531 L 478.425781 549.902344 C 482.976562 548.867188 487.632812 548.363281 492.300781 548.402344 C 497.523438 548.355469 502.738281 548.9375 507.824219 550.128906 C 507.074219 559.210938 504.675781 568.816406 501.824219 578.949219 L 477.226562 673.960938 C 470.324219 675.6875 465.148438 676.441406 460.199219 676.441406 C 455.25 676.441406 449.550781 675.6875 441.898438 673.960938 L 409.800781 588.328125 L 378.523438 673.960938 C 371.398438 675.6875 366.449219 676.441406 361.273438 676.441406 C 356.101562 676.441406 350.925781 675.765625 343.351562 673.960938 Z M 343.351562 673.960938 "/>
<path style=" stroke:none;fill-rule:nonzero;fill:rgb(0%,0%,0%);fill-opacity:1;" d="M 519.375 633.734375 L 519.375 624.128906 C 519.375 605.441406 520.199219 575.796875 528.074219 556.957031 C 546.300781 548.101562 561.898438 544.125 576.601562 544.125 C 608.398438 544.125 633.601562 552.53125 633.601562 587.578125 L 633.601562 639.664062 C 633.605469 651.101562 632.953125 662.527344 631.648438 673.886719 C 628.265625 674.882812 624.753906 675.390625 621.226562 675.390625 C 617.179688 675.355469 613.152344 674.851562 609.226562 673.886719 L 606.976562 661.878906 C 598.050781 670.960938 582.300781 676.589844 565.726562 676.589844 C 549.148438 676.589844 519.375 669.609375 519.375 633.734375 Z M 605.25 639.964844 L 605.25 575.269531 C 599.625 570.542969 588 568.367188 576.375 568.367188 C 564.75 568.367188 552.976562 570.617188 547.351562 575.269531 L 547.351562 644.84375 C 553.5 649.796875 561.601562 651.972656 570 651.972656 C 582.300781 652.046875 595.574219 647.394531 605.25 639.964844 Z M 605.25 639.964844 "/>
<path style=" stroke:none;fill-rule:nonzero;fill:rgb(0%,0%,0%);fill-opacity:1;" d="M 662.699219 726.273438 L 687.601562 669.308594 L 652.574219 584.351562 C 648.601562 574.445312 642.675781 560.933594 642.449219 550.128906 C 647.023438 548.914062 651.742188 548.332031 656.476562 548.402344 C 660.96875 548.339844 665.457031 548.84375 669.824219 549.902344 L 702.824219 635.988281 L 720.601562 596.960938 C 726.226562 584.351562 733.949219 563.410156 737.625 549.902344 C 742.171875 548.84375 746.832031 548.339844 751.5 548.402344 C 756.042969 548.355469 760.578125 548.859375 765 549.902344 C 763.273438 565.664062 754.425781 584.125 745.273438 604.914062 L 692.550781 726.273438 C 687.769531 727.304688 682.890625 727.808594 678 727.773438 C 672.859375 727.832031 667.730469 727.332031 662.699219 726.273438 Z M 662.699219 726.273438 "/>
<path style=" stroke:none;fill-rule:nonzero;fill:rgb(80%,0%,0%);fill-opacity:1;" d="M 322.050781 281.367188 C 326.230469 275 328.683594 267.65625 329.175781 260.054688 L 295.726562 266.957031 C 294.488281 267.195312 293.234375 267.320312 291.976562 267.332031 C 282.4375 267.167969 274.53125 259.886719 273.574219 250.386719 C 272.617188 240.890625 278.910156 232.175781 288.226562 230.109375 L 364.125 214.496094 C 375.835938 212.082031 386.113281 205.121094 392.699219 195.132812 C 396.917969 188.683594 399.445312 181.277344 400.050781 173.59375 L 366.449219 180.5 C 365.214844 180.734375 363.957031 180.859375 362.699219 180.875 C 353.714844 180.898438 345.976562 174.539062 344.25 165.714844 C 342.226562 155.507812 349.125 145.675781 359.324219 143.574219 L 434.324219 128.1875 C 448.949219 125.1875 457.5 113.175781 461.324219 106.347656 C 464.703125 100.210938 466.984375 93.53125 468.074219 86.609375 L 232.125 135.09375 L 232.125 313.566406 L 292.726562 301.105469 C 304.726562 298.675781 315.277344 291.578125 322.050781 281.367188 Z M 322.050781 281.367188 "/>
<path style=" stroke:none;fill-rule:nonzero;fill:rgb(80%,0%,0%);fill-opacity:1;" d="M 382.5 0.226562 C 316.5 0.226562 258.824219 13.585938 232.050781 32.796875 L 232.050781 96.667969 L 490.800781 43.53125 C 496.28125 42.417969 501.636719 45.933594 502.800781 51.410156 L 504.523438 59.890625 C 508.875 81.128906 505.125 104.695312 494.101562 124.585938 C 482.101562 146.199219 463.5 160.535156 441.675781 165.039062 L 437.550781 165.863281 C 438.566406 183.902344 433.582031 201.769531 423.375 216.671875 C 411.148438 234.835938 392.101562 247.070312 370.726562 251.496094 L 366.75 252.324219 C 368.90625 293.195312 340.941406 329.53125 300.898438 337.882812 L 232.050781 351.992188 L 232.050781 369.101562 C 258.824219 388.390625 316.5 401.75 382.5 401.75 C 448.5 401.75 506.175781 388.390625 532.949219 369.101562 L 532.949219 32.796875 C 506.175781 13.585938 448.5 0.226562 382.5 0.226562 Z M 382.5 0.226562 "/>
</g>
</svg>
